<svg width="420" height="160" viewBox="0 0 420 160" fill="none" xmlns="http://www.w3.org/2000/svg">
<path d="M50.3587 0.41657C51.832 0.264298 53.5847 0.0866481 54.296 0.0358908C54.9819 0.0105122 76.5484 -0.0148665 148.793 0.0105122L150.444 0.619599C151.358 0.949521 152.578 1.53323 153.187 1.93929C153.771 2.34535 154.737 3.28436 155.296 4.02034C155.88 4.73094 156.617 5.92373 156.921 6.60896C157.226 7.31956 157.633 8.51235 157.81 9.27371C157.988 10.0351 158.141 11.6339 158.141 12.8267C158.115 14.0703 157.937 15.6184 157.683 16.5066C157.455 17.3441 156.998 18.5369 156.667 19.1714C156.363 19.8058 155.473 20.9733 154.737 21.8108C153.975 22.6229 152.908 23.5619 152.349 23.8664C151.79 24.1963 150.698 24.6532 149.936 24.9069C148.615 25.3638 146.049 25.3891 50.9937 25.6683L48.3265 26.3282C46.8531 26.6835 44.9226 27.2672 44.0081 27.6225C43.0936 27.9524 41.6203 28.6122 40.7058 29.069C39.7913 29.5259 38.318 30.4141 37.4289 31.074C36.5144 31.7084 35.0919 32.9266 34.2536 33.7641C33.4407 34.6016 32.2976 35.9213 31.7134 36.6826C31.1545 37.444 30.24 38.9921 29.6558 40.1087C29.0969 41.2254 28.3348 43.1034 27.9538 44.2962C27.5728 45.489 27.0647 47.4178 26.8107 48.6106C26.4551 50.3617 26.3535 51.9352 26.3535 56.9855C26.3535 61.9344 26.4551 63.6855 26.8107 65.4874C27.0647 66.7309 27.5474 68.6851 27.903 69.8017C28.2586 70.9184 28.8937 72.568 29.3255 73.4816C29.732 74.3953 30.5957 75.918 31.2561 76.9078C31.9166 77.8721 33.1867 79.4202 34.1266 80.3339C35.0411 81.2475 36.6414 82.5418 37.6829 83.2524C38.699 83.9376 40.528 84.9274 41.7219 85.435C42.9158 85.9426 44.7447 86.6024 45.7862 86.9069C46.8277 87.1861 48.8345 87.6175 50.2316 87.8713C52.467 88.2266 55.9726 88.3028 78.8092 88.455C101.189 88.5819 104.999 88.6581 105.99 88.988C106.625 89.191 107.641 89.6732 108.276 90.0285C108.911 90.3838 109.978 91.2974 110.638 92.0334C111.324 92.7948 112.162 93.9876 112.493 94.6728C112.823 95.3834 113.28 96.5762 113.483 97.3376C113.687 98.0989 113.864 99.7739 113.864 101.017C113.864 102.261 113.687 103.987 113.458 104.824C113.229 105.662 112.696 107.032 112.264 107.87C111.807 108.707 110.867 109.951 110.181 110.661C109.495 111.372 108.276 112.235 107.514 112.615C106.752 112.971 105.431 113.402 104.593 113.58C103.475 113.783 96.1082 113.834 77.1581 113.758C54.9565 113.681 50.8667 113.605 48.5805 113.275C47.1072 113.047 44.7701 112.615 43.373 112.311C41.9759 112.006 39.4611 111.296 37.7845 110.737C36.108 110.179 33.4153 109.139 31.815 108.403C30.2146 107.667 27.6998 106.322 26.2265 105.433C24.7531 104.545 22.4669 102.997 21.146 102.007C19.8251 101.017 17.8183 99.3425 16.726 98.3273C15.6083 97.2868 13.8555 95.4088 12.7886 94.1652C11.7471 92.9217 10.223 90.8406 9.38472 89.5971C8.57185 88.3535 7.20013 85.9426 6.38725 84.2676C5.57438 82.5926 4.38047 79.674 3.77081 77.796C3.16116 75.918 2.42449 73.2279 2.11966 71.832C1.84024 70.4362 1.4338 67.9745 1.23058 66.3756C1.02736 64.7768 0.77334 61.7567 0.671731 59.6503C0.595524 57.4677 0.646328 54.2193 0.798742 52.0367C0.951156 49.9557 1.25598 47.1386 1.4592 45.8189C1.68782 44.4993 2.19587 42.0375 2.62771 40.3625C3.05955 38.6875 3.79622 36.2258 4.30426 34.9061C4.78691 33.5864 5.8792 31.1755 6.69208 29.5766C7.50495 27.9778 8.72426 25.846 9.38472 24.8308C10.0706 23.841 11.3153 22.1153 12.179 21.024C13.0427 19.9327 14.9732 17.8263 16.4974 16.3543C17.9961 14.8824 20.3331 12.8775 21.654 11.8877C22.975 10.8979 24.9817 9.5275 26.0994 8.84228C27.2171 8.13167 29.4017 6.93888 30.9259 6.17752C32.4754 5.39078 34.7616 4.37564 36.0063 3.89344C37.2511 3.41125 39.1054 2.77678 40.0707 2.47224C41.036 2.1677 43.1698 1.66012 44.7701 1.30482C46.3705 0.9749 48.8853 0.568842 50.3587 0.41657Z" fill="#D10F5C"/>
<path d="M399.641 11.3037V6.10106V0.898438H410.564V11.3037H419.963V19.9324H410.564V30.7691C410.564 40.6414 410.615 41.7327 411.021 42.6463C411.377 43.4076 411.732 43.7629 412.545 44.1182C413.358 44.4482 414.349 44.5497 419.963 44.5497V53.4322H415.085C411.174 53.4322 409.827 53.3307 408.405 52.95C407.439 52.6962 406.042 52.214 405.356 51.8587C404.671 51.5034 403.578 50.6913 402.943 50.0568C402.308 49.4478 401.495 48.3057 401.114 47.5697C400.759 46.8084 400.276 45.311 400.047 44.2451C399.717 42.6209 399.641 40.3115 399.641 19.9324H394.814V11.3037H399.641Z" fill="#373435"/>
<path fill-rule="evenodd" clip-rule="evenodd" d="M237.448 139.035C238.438 139.085 239.581 139.314 239.988 139.517C240.394 139.745 241.08 140.253 242.172 141.369L242.147 139.212H244.687L244.636 147.536C244.56 154.617 244.509 155.937 244.154 156.597C243.925 157.028 243.341 157.739 242.884 158.221C242.401 158.678 241.664 159.261 241.258 159.464C240.851 159.693 239.581 159.921 238.464 159.972C237.092 160.048 236.076 159.972 235.288 159.718C234.653 159.515 233.713 159.007 233.18 158.601C232.647 158.195 231.986 157.409 231.707 156.85C231.453 156.292 231.224 155.683 231.224 155.531C231.224 155.311 231.63 155.201 232.443 155.201C233.51 155.226 233.688 155.302 234.145 156.013C234.425 156.47 235.06 157.053 235.542 157.333C236.177 157.713 236.889 157.865 238.006 157.865C239.2 157.865 239.734 157.739 240.293 157.333C240.674 157.053 241.258 156.419 241.588 155.937C242.071 155.226 242.172 154.744 242.147 151.013L241.334 151.825C240.877 152.282 240.064 152.815 239.556 153.018C239.022 153.247 237.981 153.424 237.27 153.424C236.533 153.424 235.466 153.272 234.907 153.12C234.298 152.917 233.383 152.308 232.596 151.521C231.605 150.582 231.199 149.897 230.868 148.856C230.64 148.095 230.462 146.902 230.462 146.191C230.462 145.506 230.614 144.364 230.818 143.653C231.046 142.968 231.63 141.877 232.164 141.268C232.697 140.633 233.713 139.872 234.399 139.542C235.466 139.035 235.974 138.958 237.448 139.035ZM234.094 142.638C233.942 142.917 233.612 143.577 233.409 144.11C233.18 144.618 233.002 145.557 233.002 146.191C233.002 146.826 233.18 147.765 233.409 148.298C233.612 148.805 234.044 149.516 234.348 149.82C234.653 150.15 235.263 150.607 235.669 150.81C236.076 151.039 236.94 151.216 237.575 151.216C238.21 151.216 239.175 150.988 239.708 150.734C240.267 150.455 241.004 149.82 241.36 149.262C241.842 148.501 242.045 147.841 242.122 146.597C242.198 145.278 242.096 144.669 241.664 143.73C241.283 142.841 240.826 142.334 240.064 141.877C239.251 141.42 238.591 141.242 237.575 141.242C236.736 141.242 235.822 141.42 235.288 141.699C234.806 141.928 234.272 142.359 234.094 142.638Z" fill="#A9ABAE"/>
<path d="M51.3752 45.4892C51.8578 45.1847 52.8993 44.7532 53.6614 44.4994C54.9569 44.0934 57.0653 44.068 80.8419 44.068C101.9 44.0426 107.159 44.1188 109.546 44.4233C111.147 44.6263 113.382 44.9816 114.5 45.2101C115.618 45.4385 117.624 45.9207 118.945 46.3267C120.266 46.7074 122.4 47.418 123.645 47.9256C124.889 48.4078 127.125 49.3975 128.598 50.1335C130.072 50.8695 132.18 52.0369 133.298 52.7221C134.415 53.4327 136.6 54.9301 138.124 56.0975C139.648 57.2395 142.011 59.2698 143.332 60.5641C144.652 61.8838 146.481 63.8633 147.371 64.98C148.285 66.0967 149.581 67.8732 150.266 68.9137C150.952 69.9542 152.299 72.4159 153.238 74.3701C154.204 76.3243 155.372 79.1667 155.88 80.7148C156.388 82.2629 156.998 84.4708 157.277 85.6636C157.557 86.8564 157.989 89.1405 158.243 90.7393C158.598 93.0488 158.7 95.1806 158.7 100.764C158.7 106.423 158.598 108.454 158.243 110.788C157.989 112.387 157.531 114.671 157.252 115.864C156.973 117.057 156.363 119.214 155.88 120.686C155.398 122.158 154.305 124.772 153.467 126.523C152.629 128.274 151.282 130.66 150.52 131.853C149.733 133.046 148.387 134.924 147.523 136.04C146.659 137.157 144.754 139.238 143.306 140.659C141.858 142.106 139.877 143.908 138.886 144.669C137.895 145.456 135.787 146.978 134.187 148.044C132.586 149.11 130.249 150.531 128.979 151.191C127.735 151.851 125.499 152.892 124.026 153.501C122.552 154.11 120.165 154.973 118.691 155.404C117.218 155.836 115.16 156.368 114.119 156.571C113.077 156.8 110.969 157.181 109.419 157.409C106.905 157.79 101.748 157.84 59.6309 157.917C28.9957 157.967 11.8492 157.917 10.3504 157.764C8.62309 157.561 7.6324 157.282 6.28608 156.622C5.19378 156.089 4.12688 155.328 3.49182 154.643C2.93297 154.008 2.0947 152.765 1.61205 151.876C1.12941 150.988 0.570558 149.567 0.392742 148.729C0.189523 147.892 0.0371094 146.192 0.0371094 144.923C0.0625117 143.654 0.214926 142.055 0.392742 141.37C0.59596 140.659 1.0532 139.466 1.40883 138.705C1.76447 137.944 2.60274 136.7 3.28861 135.939C3.94907 135.203 4.96516 134.314 5.52401 133.985C6.08286 133.655 7.04815 133.198 7.68321 132.944C8.77551 132.513 11.4427 132.487 57.8528 132.36C104.263 132.233 107.006 132.208 109.292 131.751C110.613 131.497 112.849 130.888 114.246 130.406C115.643 129.924 117.523 129.112 118.437 128.63C119.352 128.122 120.724 127.285 121.486 126.777C122.248 126.269 123.797 124.95 124.94 123.833C126.058 122.742 127.455 121.143 128.014 120.305C128.598 119.468 129.513 117.869 130.072 116.752C130.63 115.636 131.367 113.808 131.723 112.692C132.078 111.575 132.536 109.57 132.764 108.251C132.993 106.931 133.247 104.469 133.323 102.794C133.425 101.018 133.374 98.429 133.196 96.5764C133.018 94.8253 132.586 92.2113 132.256 90.7393C131.901 89.2674 131.316 87.3386 130.961 86.4249C130.605 85.5113 129.97 84.1409 129.538 83.3795C129.106 82.6182 128.344 81.4 127.836 80.7148C127.328 80.0042 126.16 78.7098 125.271 77.7962C124.356 76.8826 122.832 75.6137 121.867 74.9792C120.876 74.3193 119.25 73.3803 118.234 72.8728C117.243 72.3652 115.338 71.6292 114.068 71.1978C112.773 70.7917 110.74 70.2588 109.546 70.0304C107.641 69.6497 104.314 69.5735 81.0959 69.4466C57.3447 69.2944 54.6775 69.2436 53.5344 68.8629C52.8485 68.6091 51.7308 68.0762 51.0704 67.6448C50.3845 67.2387 49.3684 66.2743 48.8096 65.5383C48.2253 64.8277 47.4632 63.5842 47.1076 62.8228C46.7774 62.0615 46.3455 60.691 46.1423 59.7774C45.9645 58.8638 45.7867 57.4679 45.7867 56.6558C45.7867 55.8691 45.9645 54.3971 46.1677 53.4327C46.3709 52.443 46.879 50.9964 47.2854 50.1843C47.6918 49.3975 48.5809 48.1286 49.2414 47.3672C49.9273 46.6313 50.8925 45.7684 51.3752 45.4892Z" fill="#EE417D"/>
<path fill-rule="evenodd" clip-rule="evenodd" d="M210.521 10.6694C212.172 10.7455 214.153 10.9993 215.347 11.3038C216.465 11.6084 218.167 12.2682 219.158 12.7758C220.123 13.2834 221.622 14.4 222.485 15.2375C223.4 16.1512 224.365 17.3947 224.848 18.3591C225.28 19.222 225.813 20.5924 226.016 21.3792C226.219 22.1913 226.397 23.2318 226.397 24.5007H216.363L216.058 23.4348C215.906 22.8257 215.5 21.9629 215.169 21.4807C214.839 20.9985 214.077 20.3386 213.442 20.0087C212.807 19.6788 211.613 19.2981 210.775 19.1712C209.759 18.9936 208.793 18.9936 207.854 19.1712C207.091 19.3235 205.948 19.7042 205.339 20.0087C204.729 20.3133 204.018 20.8462 203.738 21.2015C203.434 21.6076 203.256 22.242 203.281 22.978C203.281 23.6632 203.484 24.45 203.789 24.9322C204.145 25.5159 204.831 26.0234 206.025 26.5818C206.964 27.0132 210.14 28.0537 213.061 28.8659C215.982 29.7033 219.234 30.7693 220.25 31.2514C221.495 31.8352 222.587 32.6219 223.679 33.6878C224.67 34.6776 225.584 35.8704 226.042 36.8094C226.727 38.2306 226.778 38.5351 226.778 41.3775C226.778 44.3214 226.753 44.4991 225.94 46.1995C225.356 47.3669 224.543 48.5089 223.527 49.5494C222.333 50.7169 221.368 51.3767 219.539 52.2396C218.065 52.9502 216.287 53.5593 214.966 53.8384C213.315 54.1684 212.045 54.2191 209.505 54.1176C207.244 54.0415 205.644 53.813 204.424 53.4577C203.434 53.1786 201.63 52.4172 200.36 51.8081C199.09 51.1737 197.54 50.2347 196.905 49.7017C196.245 49.1688 195.305 48.179 194.771 47.4684C194.238 46.7832 193.476 45.5142 193.069 44.6767C192.688 43.8392 192.257 42.4942 192.155 41.6821C192.053 40.8699 192.028 40.1593 192.079 40.0832C192.129 40.0325 194.517 39.9817 197.362 39.9817C202.036 39.9817 202.544 40.0325 202.671 40.4385C202.748 40.6669 203.002 41.3268 203.23 41.8597C203.484 42.3927 204.196 43.3063 204.831 43.89C205.491 44.4991 206.533 45.1082 207.371 45.3873C208.133 45.6158 209.428 45.8188 210.267 45.8188C211.105 45.8188 212.426 45.6411 213.188 45.4127C214.179 45.1082 214.915 44.6767 216.871 42.7226L216.719 41.3014C216.592 40.0578 216.44 39.7533 215.677 39.0934C215.195 38.662 214.331 38.1798 213.798 38.0022C213.264 37.8245 210.648 37.0378 207.981 36.2764C205.313 35.5151 202.214 34.4745 201.046 33.9923C199.903 33.5101 198.48 32.8249 197.87 32.4442C197.286 32.0636 196.295 31.3022 195.66 30.7185C195.025 30.1094 194.263 29.0689 193.933 28.3329C193.628 27.6223 193.273 26.2011 193.12 25.2113C192.993 24.0693 192.968 22.7242 193.12 21.7091C193.247 20.7954 193.552 19.6027 193.781 19.0443C194.009 18.486 194.619 17.4708 195.152 16.7602C195.66 16.075 196.6 15.0345 197.21 14.5015C197.82 13.9432 199.242 13.055 200.36 12.5474C201.478 12.0144 202.9 11.4561 203.535 11.3038C204.17 11.1262 205.364 10.8978 206.202 10.7963C207.041 10.6694 208.997 10.6186 210.521 10.6694ZM259.674 10.6948C260.868 10.7455 262.519 10.9739 263.358 11.1769C264.196 11.38 265.898 12.0906 267.168 12.725C268.438 13.3849 269.886 14.2731 270.419 14.7046C270.953 15.136 271.867 16.1512 272.452 16.9633C273.036 17.75 273.569 18.4099 273.646 18.4099C273.722 18.4352 274.306 17.7754 274.941 16.9633C275.576 16.1512 276.846 14.933 277.735 14.2478C278.624 13.5879 279.869 12.7758 280.504 12.4459C281.139 12.116 282.511 11.6084 283.552 11.2785C285.077 10.7963 286.016 10.6948 288.379 10.6948C290.309 10.6948 291.859 10.847 292.951 11.1516C293.866 11.4054 295.466 12.0144 296.508 12.522C297.93 13.2072 298.921 13.9686 300.445 15.4913C301.918 16.9379 302.731 18.0292 303.366 19.2981C303.823 20.2625 304.459 21.8867 304.738 22.8511C305.221 24.5261 305.246 25.4651 305.398 53.4324H294.729V41.5044C294.729 33.8147 294.628 28.9166 294.45 27.7238C294.272 26.734 293.942 25.4397 293.688 24.8814C293.434 24.3231 292.799 23.3587 292.265 22.7496C291.732 22.1405 290.767 21.3792 290.081 21.0492C289.42 20.7193 288.049 20.3386 287.033 20.2117C285.915 20.0595 284.569 20.0595 283.552 20.2117C282.638 20.364 281.444 20.6686 280.885 20.9223C280.326 21.1507 279.437 21.7598 278.878 22.242C278.345 22.7242 277.634 23.5617 277.303 24.12C276.973 24.6784 276.541 25.8712 276.338 26.7848C276.008 28.1553 275.932 30.5916 275.932 53.4324H265.263V41.5044C265.263 33.8147 265.161 28.9166 264.983 27.7238C264.806 26.734 264.475 25.4397 264.221 24.8814C263.967 24.3231 263.332 23.3587 262.799 22.7496C262.265 22.1405 261.3 21.3792 260.614 21.0492C259.954 20.7193 258.658 20.3386 257.693 20.2117C256.677 20.0848 255.254 20.0848 254.137 20.2117C253.146 20.3386 251.774 20.7193 251.088 21.0492C250.428 21.3792 249.463 22.1151 248.929 22.6988C248.421 23.2572 247.811 24.0693 247.608 24.5007C247.405 24.9322 247.049 25.9727 246.846 26.8356C246.541 28.1299 246.465 30.7692 246.465 53.4324H235.796V11.3038H246.465L246.44 16.2527L248.04 14.73C249.031 13.7909 250.377 12.8519 251.546 12.2936C252.587 11.786 254.086 11.2277 254.848 11.0754C255.61 10.9232 256.524 10.7455 256.88 10.6948C257.236 10.6186 258.48 10.6186 259.674 10.6948ZM331.944 10.5932C332.376 10.5679 333.519 10.6694 334.484 10.7963C335.449 10.9485 336.948 11.2785 337.786 11.5576C338.625 11.8368 340.174 12.5728 341.216 13.1819C342.257 13.7909 343.781 14.8822 346.042 16.8871V11.3038H356.711V53.4324H346.042V47.5953L344.442 49.1434C343.578 50.0063 342.003 51.1991 340.962 51.8081C339.92 52.4426 338.32 53.1786 337.405 53.4577C336.364 53.813 334.789 54.0415 333.087 54.1176C331.156 54.2191 329.861 54.143 328.388 53.8384C327.27 53.61 325.339 52.9248 324.069 52.3157C322.799 51.732 321.173 50.7422 320.437 50.1839C319.725 49.6002 318.506 48.2805 317.744 47.2654C316.982 46.2756 315.89 44.5245 315.331 43.4078C314.772 42.2911 314.086 40.5146 313.807 39.4741C313.502 38.4336 313.146 36.3779 312.994 34.906C312.816 33.0279 312.816 31.4545 313.019 29.5765C313.172 28.1045 313.476 26.2265 313.68 25.389C313.908 24.5515 314.416 23.1303 314.848 22.2167C315.255 21.303 316.093 19.8311 316.702 18.9174C317.287 18.0038 318.582 16.5318 319.522 15.6182C320.589 14.6031 322.062 13.5625 323.307 12.9027C324.425 12.3444 326.025 11.6591 326.863 11.4054C327.702 11.1769 329.023 10.8978 329.785 10.7963C330.547 10.6948 331.512 10.5932 331.944 10.5932ZM330.089 21.2015C329.226 21.6329 327.981 22.4704 327.295 23.0795C326.609 23.714 325.746 24.8814 325.288 25.795C324.857 26.6833 324.349 28.003 324.196 28.6882C324.018 29.3988 323.891 30.9723 323.891 32.2412C323.891 33.5609 324.044 35.1851 324.298 36.1241C324.526 36.987 324.984 38.2306 325.314 38.8904C325.644 39.5756 326.482 40.7177 327.143 41.479C328.006 42.418 328.946 43.1033 330.293 43.7631C332.122 44.6514 332.299 44.6767 334.865 44.6514C337.05 44.6514 337.812 44.5498 339.056 44.0423C340.2 43.6108 341.012 43.0018 342.384 41.6567C343.502 40.54 344.416 39.3218 344.823 38.459C345.178 37.6976 345.61 36.4541 345.763 35.7181C345.915 35.0075 346.042 33.5609 346.042 32.5711C346.042 31.556 345.941 30.084 345.788 29.3227C345.636 28.5613 345.204 27.2416 344.797 26.4041C344.416 25.5666 343.756 24.5007 343.349 24.0185C342.943 23.5363 342.105 22.7242 341.47 22.2167C340.835 21.7091 339.59 21.0746 338.675 20.7701C337.761 20.4655 336.44 20.161 335.754 20.1102C335.043 20.0341 333.849 20.0848 333.087 20.2117C332.325 20.3386 330.979 20.7954 330.089 21.2015ZM391.004 10.5425V21.7091H389.531C388.743 21.7091 387.219 21.836 386.178 21.9882C385.136 22.1151 383.612 22.5466 382.774 22.9273C381.936 23.3079 380.818 24.12 380.208 24.7545C379.548 25.4397 378.964 26.4295 378.659 27.2924C378.227 28.5613 378.176 29.7795 378.049 53.4324H367.38V11.3038H378.049L378.024 17.7754L378.76 16.7602C379.167 16.2019 379.929 15.3137 380.488 14.8061C381.021 14.2731 381.986 13.5118 382.621 13.0803C383.257 12.6743 384.501 12.0398 385.416 11.6845C386.33 11.3546 387.702 10.9485 388.464 10.8216C389.226 10.6948 390.115 10.5932 391.004 10.5425ZM335.373 61.2997H346.296V71.705H355.695V80.3337H346.296V91.2465C346.296 100.383 346.347 102.312 346.677 103.048C346.957 103.682 347.388 104.088 348.125 104.443C349.04 104.849 349.776 104.951 355.695 104.951V113.834H350.996C347.566 113.834 345.813 113.732 344.442 113.427C343.451 113.199 342.156 112.793 341.597 112.565C341.038 112.311 339.996 111.676 339.311 111.118C338.599 110.56 337.659 109.494 337.228 108.732C336.77 107.971 336.161 106.448 335.881 105.332C335.399 103.428 335.373 102.54 335.373 80.3337H330.547V71.705H335.373V61.2997ZM212.68 70.969C213.442 70.969 215.042 71.0705 216.236 71.2228C217.43 71.3751 219.31 71.7811 220.428 72.1618C221.571 72.5425 223.298 73.38 224.365 74.0906C225.407 74.7758 227.007 76.0955 227.921 77.0345C228.988 78.1004 229.954 79.4201 230.639 80.7144C231.198 81.8311 231.859 83.3792 232.087 84.1405C232.316 84.9019 232.494 85.6125 232.494 85.7394C232.494 85.8409 229.954 85.917 221.19 85.9424L220.555 84.6227C220.199 83.8867 219.412 82.8716 218.777 82.3132C218.141 81.7803 216.998 81.0951 216.236 80.7905C215.195 80.3845 214.28 80.2576 212.68 80.2576C211.08 80.283 210.14 80.4352 208.997 80.8667C208.108 81.1966 206.99 81.8818 206.329 82.5163C205.694 83.1 204.881 84.1913 204.5 84.9273C204.119 85.6886 203.611 87.0337 203.383 87.9473C203.103 89.0132 202.951 90.6628 202.951 92.6424C202.951 94.3173 203.078 96.373 203.256 97.2105C203.434 98.048 203.916 99.4184 204.297 100.256C204.729 101.17 205.491 102.235 206.253 102.921C206.914 103.53 208.108 104.317 208.87 104.672C210.064 105.23 210.622 105.332 212.807 105.332C214.915 105.332 215.55 105.23 216.617 104.748C217.303 104.418 218.345 103.733 218.904 103.174C219.462 102.642 220.199 101.601 221.19 99.5961L226.829 99.6215C229.954 99.6215 232.494 99.6976 232.494 99.8245C232.494 99.926 232.316 100.637 232.087 101.398C231.859 102.159 231.351 103.428 230.97 104.19C230.589 104.951 229.7 106.321 229.039 107.21C228.353 108.123 226.931 109.545 225.889 110.357C224.848 111.169 223.298 112.184 222.46 112.565C221.622 112.971 220.021 113.554 218.904 113.884C217.176 114.366 216.262 114.443 212.934 114.468C209.937 114.468 208.59 114.366 207.345 114.011C206.431 113.783 204.678 113.072 203.408 112.463C202.138 111.854 200.385 110.813 199.496 110.128C198.607 109.443 197.388 108.301 196.804 107.616C196.219 106.905 195.406 105.763 194.975 105.078C194.543 104.367 193.984 103.352 193.755 102.794C193.527 102.235 193.095 101.043 192.841 100.129C192.587 99.2154 192.231 97.2359 192.079 95.6878C191.85 93.5814 191.85 92.1855 192.079 89.9776C192.231 88.3787 192.612 86.2723 192.892 85.2826C193.196 84.2928 193.857 82.6432 194.416 81.6027C194.949 80.5621 195.889 79.1155 196.473 78.4049C197.083 77.6943 198.074 76.6792 198.709 76.1209C199.344 75.5879 200.538 74.6997 201.376 74.1921C202.214 73.6845 203.764 72.9232 204.805 72.5171C205.847 72.0857 207.396 71.6288 208.235 71.4766C209.073 71.3243 210.114 71.172 210.521 71.1213C210.927 71.0705 211.918 70.9944 212.68 70.969ZM257.134 70.9944C257.769 70.969 259.192 71.1213 260.309 71.3243C261.732 71.5781 263.129 72.0603 264.933 72.9739C266.812 73.8875 268.006 74.6743 269.124 75.7656C270.013 76.6031 270.8 77.1868 270.927 77.0853C271.029 76.9837 271.105 75.7402 271.105 71.705H281.774V113.834H271.105V111.042C271.105 109.494 271.054 108.25 270.978 108.25C270.902 108.25 270.064 108.961 269.124 109.824C268.159 110.712 266.482 111.905 265.364 112.488C264.272 113.072 262.443 113.783 261.325 114.087C259.979 114.417 258.506 114.595 257.007 114.595C255.584 114.595 253.959 114.392 252.689 114.087C251.571 113.783 249.742 113.123 248.624 112.59C247.329 111.955 245.957 111.016 244.839 109.976C243.874 109.113 242.502 107.463 241.766 106.347C241.029 105.23 240.089 103.53 239.683 102.54C239.251 101.55 238.794 100.256 238.641 99.6215C238.463 98.987 238.235 97.7942 238.082 96.9567C237.93 96.1192 237.828 94.1905 237.828 92.6424C237.828 91.0943 237.981 88.9371 238.184 87.8204C238.387 86.7038 238.794 85.1049 239.098 84.2674C239.378 83.4299 240.038 82.0087 240.521 81.0951C241.029 80.1814 242.045 78.7095 242.756 77.7959C243.493 76.8822 244.814 75.5879 245.728 74.8773C246.617 74.1921 248.142 73.2531 249.132 72.8216C250.123 72.3648 251.647 71.8065 252.562 71.6035C253.476 71.4004 254.619 71.172 255.102 71.1213C255.584 71.0705 256.499 71.0198 257.134 70.9944ZM254.213 81.958C253.374 82.4148 252.333 83.2015 251.927 83.6583C251.495 84.1405 250.86 85.0288 250.479 85.6632C250.123 86.2977 249.615 87.4397 249.361 88.2011C249.005 89.267 248.878 90.3329 248.878 92.6424C248.904 94.7995 249.031 96.0938 249.336 97.0836C249.564 97.845 250.123 99.0885 250.529 99.7991C250.961 100.535 251.774 101.626 252.358 102.185C252.968 102.768 254.314 103.657 255.356 104.164C257.159 105.027 257.388 105.078 259.801 105.078C261.808 105.078 262.646 104.951 263.739 104.52C264.501 104.215 265.644 103.581 266.279 103.098C266.914 102.616 267.905 101.626 268.489 100.865C269.124 100.078 269.861 98.6825 270.242 97.5912C270.8 96.0431 270.927 95.2056 270.953 93.1499C270.953 91.7541 270.826 89.9776 270.623 89.2162C270.445 88.4549 269.911 87.1352 269.48 86.2977C269.048 85.4856 268.159 84.242 267.473 83.5822C266.812 82.9223 265.669 82.0595 264.933 81.7042C264.221 81.3235 262.875 80.8667 261.96 80.689C261.046 80.486 260.03 80.3591 259.674 80.3591C259.319 80.3591 258.303 80.5368 257.388 80.7398C256.474 80.9428 255.051 81.4758 254.213 81.958ZM308.32 71.0705C310.276 71.1213 312.105 71.3751 313.4 71.705C314.518 72.0095 316.245 72.6694 317.21 73.1769C318.252 73.7353 319.649 74.7758 320.564 75.6894C321.681 76.8061 322.443 77.8466 323.028 79.1155C323.51 80.1307 324.018 81.5773 324.171 82.2879C324.323 83.0239 324.45 83.9121 324.45 84.9019H314.289L314.01 83.6837C313.807 82.7954 313.451 82.2117 312.562 81.3489C311.749 80.5621 310.962 80.0799 310.098 79.8261C309.387 79.6231 307.964 79.4708 306.923 79.4962C305.373 79.5216 304.763 79.6485 303.646 80.2576C302.884 80.6383 302.045 81.2981 301.74 81.6788C301.359 82.2117 301.207 82.7447 301.258 83.5822C301.283 84.3182 301.486 85.0288 301.766 85.4094C302.045 85.7647 303.011 86.4246 303.9 86.856C304.789 87.3128 307.989 88.3787 310.987 89.2416C313.984 90.1045 317.083 91.0689 317.846 91.4242C318.608 91.7541 319.852 92.5155 320.614 93.0992C321.376 93.6829 322.418 94.7234 322.951 95.434C323.459 96.1192 324.145 97.4389 324.45 98.3525C324.907 99.723 324.984 100.408 324.882 102.286C324.806 103.784 324.577 105.053 324.222 105.966C323.942 106.728 323.129 108.047 322.469 108.859C321.808 109.697 320.589 110.839 319.751 111.423C318.912 112.006 317.287 112.844 316.118 113.275C314.975 113.732 313.197 114.214 312.181 114.366C311.165 114.519 309.056 114.595 307.431 114.519C305.83 114.443 303.773 114.214 302.858 113.96C301.944 113.732 299.937 112.92 298.413 112.184C296.508 111.245 295.187 110.407 294.272 109.519C293.561 108.834 292.494 107.54 291.91 106.651C291.351 105.788 290.741 104.494 290.538 103.809C290.36 103.098 290.132 102.058 289.903 100.383L300.648 100.51L300.978 101.652C301.156 102.337 301.69 103.2 302.274 103.809C302.833 104.367 303.849 105.103 304.535 105.459C305.602 105.992 306.135 106.093 308.193 106.093C309.945 106.093 310.911 105.966 311.749 105.636C312.384 105.382 313.172 104.926 313.476 104.621C313.807 104.317 314.238 103.758 314.442 103.352C314.645 102.971 314.797 102.286 314.797 101.829C314.797 101.398 314.543 100.637 314.238 100.154C313.908 99.6722 313.248 99.0885 312.765 98.8347C312.282 98.581 310.453 97.9719 308.701 97.4643C306.948 96.9567 304.154 96.1192 302.477 95.5863C300.801 95.0533 298.565 94.2158 297.524 93.7083C296.482 93.2007 295.034 92.3124 294.323 91.7033C293.612 91.0943 292.799 90.2568 292.519 89.8507C292.24 89.4446 291.808 88.5056 291.554 87.8204C291.224 86.9322 291.097 85.7647 291.072 84.0136C291.072 82.6178 291.199 81.0189 291.351 80.4606C291.503 79.9023 292.265 78.5318 293.002 77.4152C293.942 76.0194 294.806 75.0803 295.873 74.2936C296.711 73.6845 298.286 72.8724 299.353 72.441C300.445 72.0349 302.223 71.5273 303.29 71.3243C304.636 71.0705 306.262 70.9944 308.32 71.0705Z" fill="#373435"/>
<path fill-rule="evenodd" clip-rule="evenodd" d="M208.869 134.39H211.41V153.17H208.869V134.39ZM299.556 134.39H302.096V153.17H299.556L299.581 151.013L298.87 151.749C298.489 152.155 297.701 152.688 297.142 152.942C296.558 153.221 295.542 153.424 294.729 153.424C293.967 153.424 292.875 153.272 292.316 153.12C291.706 152.917 290.792 152.307 290.004 151.521C289.014 150.582 288.607 149.896 288.277 148.856C288.048 148.095 287.87 146.876 287.87 146.191C287.87 145.481 288.023 144.339 288.226 143.653C288.455 142.943 289.039 141.877 289.572 141.268C290.106 140.633 291.097 139.872 291.808 139.542C292.595 139.187 293.561 138.958 294.348 138.958C295.034 138.958 296.126 139.136 296.761 139.339C297.396 139.567 298.285 140.1 299.556 141.369V134.39ZM291.528 142.638C291.351 142.917 291.046 143.577 290.817 144.11C290.589 144.618 290.411 145.557 290.411 146.191C290.411 146.826 290.589 147.765 290.817 148.298C291.02 148.805 291.452 149.516 291.757 149.82C292.062 150.15 292.672 150.607 293.078 150.81C293.51 151.039 294.373 151.216 294.983 151.216C295.618 151.216 296.583 150.988 297.142 150.734C297.701 150.455 298.412 149.82 298.793 149.262C299.276 148.501 299.454 147.841 299.53 146.597C299.606 145.278 299.53 144.668 299.098 143.729C298.692 142.841 298.26 142.334 297.473 141.877C296.685 141.42 296.025 141.242 294.983 141.242C294.145 141.242 293.23 141.42 292.722 141.699C292.24 141.928 291.681 142.359 291.528 142.638ZM329.784 134.39H332.325V153.17H329.784V134.39ZM199.089 138.958C199.801 138.958 200.791 139.085 201.325 139.212C201.833 139.364 202.747 139.847 203.357 140.303C204.017 140.811 204.729 141.725 205.186 142.638C205.872 143.933 205.948 144.389 205.948 146.166C205.923 147.663 205.77 148.526 205.415 149.364C205.135 149.998 204.602 150.861 204.271 151.267C203.916 151.673 203.001 152.333 202.265 152.739C201.223 153.246 200.512 153.424 199.47 153.424C198.708 153.424 197.641 153.272 197.083 153.094C196.549 152.942 195.66 152.409 194.136 151.14V159.769H191.596V139.212H194.136V141.623L194.593 140.989C194.873 140.633 195.685 140.05 196.448 139.644C197.413 139.161 198.2 138.958 199.089 138.958ZM195.254 142.892C194.949 143.298 194.542 144.161 194.39 144.795C194.212 145.43 194.136 146.445 194.238 147.079C194.314 147.714 194.644 148.602 194.974 149.084C195.279 149.567 195.838 150.176 196.168 150.429C196.524 150.683 197.21 150.988 197.692 151.115C198.2 151.242 199.115 151.242 199.724 151.115C200.36 151.013 201.172 150.709 201.503 150.429C201.858 150.176 202.417 149.44 202.773 148.831C203.23 147.993 203.382 147.333 203.382 146.191C203.382 145.201 203.205 144.313 202.9 143.679C202.62 143.12 202.011 142.384 201.528 142.029C200.868 141.522 200.309 141.344 199.115 141.293C198.022 141.242 197.337 141.344 196.702 141.674C196.219 141.928 195.584 142.486 195.254 142.892ZM261.579 139.034C262.57 139.085 263.713 139.314 264.119 139.517C264.551 139.745 265.212 140.253 266.304 141.369L266.279 139.212H268.819V153.17H266.279L266.304 151.013L265.593 151.749C265.212 152.155 264.424 152.688 263.865 152.942C263.281 153.221 262.265 153.424 261.452 153.424C260.69 153.424 259.598 153.272 259.039 153.12C258.429 152.917 257.515 152.307 256.727 151.521C255.762 150.582 255.33 149.896 255.025 148.856C254.797 148.095 254.593 146.902 254.593 146.191C254.593 145.506 254.771 144.364 254.974 143.653C255.178 142.968 255.787 141.877 256.295 141.268C256.829 140.633 257.845 139.872 258.531 139.542C259.598 139.034 260.106 138.958 261.579 139.034ZM258.251 142.638C258.074 142.917 257.769 143.577 257.54 144.11C257.311 144.618 257.134 145.557 257.134 146.191C257.134 146.826 257.311 147.765 257.54 148.298C257.743 148.805 258.175 149.516 258.48 149.82C258.785 150.15 259.394 150.607 259.801 150.81C260.233 151.039 261.096 151.216 261.706 151.216C262.341 151.216 263.306 150.988 263.865 150.734C264.424 150.455 265.135 149.82 265.516 149.262C265.999 148.501 266.177 147.841 266.253 146.597C266.329 145.278 266.253 144.668 265.821 143.729C265.415 142.841 264.983 142.334 264.196 141.877C263.408 141.42 262.748 141.242 261.706 141.242C260.868 141.242 259.953 141.42 259.445 141.699C258.963 141.928 258.404 142.359 258.251 142.638ZM279.361 138.984C280.326 138.984 281.266 139.136 281.901 139.44C282.46 139.694 283.298 140.303 283.755 140.811C284.213 141.344 284.695 142.181 284.822 142.714C284.975 143.222 285.076 145.785 285.076 153.17H282.536V148.399C282.536 144.11 282.485 143.577 282.028 142.841C281.749 142.384 281.215 141.801 280.834 141.572C280.377 141.293 279.64 141.141 278.726 141.166C277.76 141.192 277.151 141.344 276.693 141.699C276.363 141.978 275.83 142.511 275.55 142.867C275.093 143.501 275.042 144.009 274.915 153.17H272.375V139.212H273.645C274.89 139.212 274.915 139.237 274.915 140.735L275.754 140.126C276.211 139.77 276.871 139.39 277.201 139.237C277.557 139.111 278.522 138.984 279.361 138.984ZM320.004 138.958C320.716 138.958 321.706 139.085 322.24 139.212C322.748 139.364 323.662 139.847 324.272 140.303C324.932 140.811 325.644 141.725 326.101 142.638C326.787 143.933 326.863 144.389 326.863 146.166C326.838 147.663 326.685 148.526 326.33 149.364C326.05 149.998 325.517 150.861 325.186 151.267C324.831 151.673 323.916 152.333 323.18 152.739C322.138 153.246 321.427 153.424 320.385 153.424C319.623 153.424 318.556 153.272 317.998 153.094C317.464 152.942 316.575 152.409 315.051 151.14V159.769H312.511V139.212H315.051V141.623L315.508 140.989C315.788 140.633 316.6 140.05 317.363 139.644C318.328 139.161 319.115 138.958 320.004 138.958ZM316.169 142.892C315.864 143.298 315.457 144.161 315.305 144.795C315.127 145.43 315.051 146.445 315.153 147.079C315.229 147.714 315.559 148.602 315.889 149.084C316.194 149.567 316.753 150.176 317.083 150.429C317.439 150.683 318.125 150.988 318.607 151.115C319.115 151.242 320.03 151.242 320.639 151.115C321.275 151.013 322.087 150.709 322.418 150.429C322.773 150.176 323.332 149.44 323.688 148.831C324.145 147.993 324.297 147.333 324.297 146.191C324.297 145.201 324.12 144.313 323.815 143.679C323.535 143.12 322.926 142.384 322.443 142.029C321.783 141.522 321.224 141.344 320.03 141.293C318.938 141.242 318.252 141.344 317.617 141.674C317.134 141.928 316.499 142.486 316.169 142.892ZM342.358 139.034C343.349 139.085 344.492 139.314 344.899 139.517C345.331 139.745 345.991 140.253 347.083 141.369L347.058 139.212H349.598V153.17H347.058L347.083 151.013L346.372 151.749C345.991 152.155 345.203 152.688 344.645 152.942C344.06 153.221 343.044 153.424 342.231 153.424C341.469 153.424 340.377 153.272 339.818 153.12C339.209 152.917 338.294 152.307 337.507 151.521C336.541 150.582 336.109 149.896 335.805 148.856C335.576 148.095 335.373 146.876 335.373 146.191C335.373 145.481 335.551 144.339 335.754 143.653C335.957 142.943 336.567 141.877 337.075 141.268C337.608 140.633 338.624 139.872 339.31 139.542C340.377 139.034 340.885 138.958 342.358 139.034ZM339.031 142.638C338.853 142.917 338.548 143.577 338.319 144.085C338.091 144.618 337.913 145.557 337.913 146.191C337.913 146.826 338.091 147.765 338.319 148.272C338.523 148.805 338.955 149.516 339.259 149.82C339.564 150.15 340.174 150.607 340.58 150.81C341.012 151.039 341.876 151.216 342.485 151.216C343.12 151.216 344.086 150.988 344.645 150.734C345.203 150.455 345.915 149.82 346.296 149.262C346.778 148.501 346.956 147.841 347.032 146.597C347.109 145.278 347.032 144.668 346.601 143.704C346.194 142.841 345.762 142.334 344.975 141.877C344.187 141.42 343.527 141.242 342.485 141.242C341.647 141.242 340.733 141.42 340.225 141.699C339.742 141.928 339.183 142.359 339.031 142.638ZM214.966 139.212H217.506V143.983C217.506 148.272 217.557 148.805 218.014 149.541C218.294 149.998 218.852 150.582 219.233 150.81C219.691 151.089 220.402 151.242 221.316 151.216C222.248 151.199 222.917 151.03 223.323 150.709C223.653 150.455 224.161 149.922 224.466 149.541C224.974 148.856 225 148.501 225.051 139.212H227.667V153.17H226.397C225.152 153.17 225.127 153.145 225.127 151.648L223.958 152.485C222.993 153.17 222.536 153.323 221.113 153.373C220.021 153.449 219.056 153.323 218.395 153.069C217.836 152.866 216.947 152.231 216.439 151.673C215.906 151.089 215.372 150.201 215.22 149.693C215.093 149.161 214.966 146.597 214.966 143.983V139.212ZM354.298 139.187L356.457 144.643C357.651 147.638 358.641 150.074 358.667 150.049C358.692 150.023 359.429 148.145 360.292 145.912C361.131 143.704 362.071 141.268 362.807 139.212H364.077C364.789 139.212 365.348 139.288 365.348 139.39C365.348 139.491 363.493 144.085 357.092 159.642L355.898 159.693C355.06 159.743 354.679 159.667 354.679 159.439C354.679 159.261 355.263 157.764 357.193 153.043L354.45 146.318C352.951 142.613 351.757 139.491 351.808 139.39C351.859 139.288 352.469 139.187 354.298 139.187Z" fill="#A9ABAE"/>
</svg>
