<svg width="16" height="16" viewBox="0 0 16 16" fill="none" xmlns="http://www.w3.org/2000/svg">
<path d="M8.00017 11.2079C7.87953 11.2085 7.75994 11.1854 7.64826 11.1398C7.53657 11.0942 7.43499 11.027 7.34934 10.942L3.68267 7.27535C3.5972 7.18988 3.5294 7.08842 3.48315 6.97675C3.43689 6.86508 3.41309 6.74539 3.41309 6.62452C3.41309 6.50365 3.43689 6.38396 3.48315 6.27229C3.5294 6.16062 3.5972 6.05915 3.68267 5.97369C3.76814 5.88822 3.8696 5.82042 3.98127 5.77416C4.09295 5.72791 4.21263 5.7041 4.3335 5.7041C4.45437 5.7041 4.57406 5.72791 4.68573 5.77416C4.7974 5.82042 4.89887 5.88822 4.98434 5.97369L8.00017 9.00785L11.0252 6.09285C11.1095 5.99909 11.2123 5.92373 11.327 5.87149C11.4418 5.81925 11.5661 5.79126 11.6922 5.78926C11.8183 5.78727 11.9435 5.81131 12.0598 5.85988C12.1762 5.90846 12.2813 5.98052 12.3686 6.07157C12.4558 6.16262 12.5234 6.27069 12.5669 6.38902C12.6105 6.50736 12.6292 6.63342 12.6219 6.75931C12.6145 6.8852 12.5812 7.00822 12.5242 7.12067C12.4671 7.23312 12.3874 7.33259 12.2902 7.41285L8.6235 10.9512C8.45587 11.1128 8.23301 11.2046 8.00017 11.2079Z" fill="#EE417D"/>
</svg>
